PathFileType	4	(X/Y/Z)	/Users/itak/Documents/Research/Walk-IL/dataset/trc/00106_00007.trc
DataRate	CameraRate	NumFrames	NumMarkers	Units	OrigDataRate	OrigDataStartFrame	OrigNumFrames
100.000000	100.000000	4	53	mm	100.000000	0	527
Frame#	Time	RPSI			LPSI			L3			STRN			T10			C7			CLAV			RBAK			LBAK			LSHO			LUPA			LAEL			LAOL			LWTS			LWPS			LFRA			LIFD			LHPS			LHTS			RSHO			RUPA			RAEL			RAOL			RWTS			RWPS			RFRA			RIFD			RHTS			RHPS			RBHD			LFHD			RFHD			LBHD			LHIP			RHIP			RASI			LASI			LKNE			LTHI			LANK			LTIP			LTOE			LMT1			LMT5			LHEE			RKNE			RTHI			RANK			RTIP			RTOE			RMT1			RMT5			RHEE			
		X1	Y1	Z1	X2	Y2	Z2	X3	Y3	Z3	X4	Y4	Z4	X5	Y5	Z5	X6	Y6	Z6	X7	Y7	Z7	X8	Y8	Z8	X9	Y9	Z9	X10	Y10	Z10	X11	Y11	Z11	X12	Y12	Z12	X13	Y13	Z13	X14	Y14	Z14	X15	Y15	Z15	X16	Y16	Z16	X17	Y17	Z17	X18	Y18	Z18	X19	Y19	Z19	X20	Y20	Z20	X21	Y21	Z21	X22	Y22	Z22	X23	Y23	Z23	X24	Y24	Z24	X25	Y25	Z25	X26	Y26	Z26	X27	Y27	Z27	X28	Y28	Z28	X29	Y29	Z29	X30	Y30	Z30	X31	Y31	Z31	X32	Y32	Z32	X33	Y33	Z33	X34	Y34	Z34	X35	Y35	Z35	X36	Y36	Z36	X37	Y37	Z37	X38	Y38	Z38	X39	Y39	Z39	X40	Y40	Z40	X41	Y41	Z41	X42	Y42	Z42	X43	Y43	Z43	X44	Y44	Z44	X45	Y45	Z45	X46	Y46	Z46	X47	Y47	Z47	X48	Y48	Z48	X49	Y49	Z49	X50	Y50	Z50	X51	Y51	Z51	X52	Y52	Z52	X53	Y53	Z53	

1	0	-1724.63427734375	1120.316528320312	-251.9549255371094	-1720.217895507812	1126.153564453125	-387.4605102539062	-1729.319091796875	1162.410766601562	-324.41259765625	-1501.22119140625	1357.035278320312	-318.1343688964844	-1757.916259765625	1317.838623046875	-331.9003295898438	-1702.015258789062	1606.4248046875	-355.7871398925781	-1528.767822265625	1493.736450195312	-327.461669921875	-1774.281616210938	1429.419189453125	-265.5123901367188	-1701.8173828125	1582.902221679688	-457.2097473144531	-1609.882934570312	1562.066162109375	-515.6791381835938	-1622.017700195312	1430.032104492188	-585.2030029296875	-1594.588500976562	1210.711059570312	-603.176513671875	-1669.331298828125	1196.35546875	-559.488037109375	-1498.07470703125	955.113525390625	-541.435546875	-1572.110961914062	928.0948486328125	-583.33447265625	-1574.401977539062	1094.973876953125	-603.6875610351562	-1488.79541015625	761.439208984375	-517.361328125	-1541.455078125	853.8714599609375	-578.7862548828125	-1479.181274414062	865.4125366210938	-549.5000610351562	-1663.027954101562	1593.19287109375	-169.1505279541016	-1689.812377929688	1523.165893554688	-104.9192276000977	-1723.5947265625	1230.362426757812	-80.76445770263672	-1715.369995117188	1225.687133789062	-178.0394439697266	-1584.736206054688	985.1118774414062	-63.59443283081055	-1663.35400390625	969.9461669921875	-43.45343017578125	-1705.381591796875	1156.634155273438	-59.5448112487793	-1563.215576171875	790.0904541015625	-78.17270660400391	-1558.071533203125	875.4064331054688	-52.6015625	-1630.142578125	869.4750366210938	-31.69121170043945	-1665.719482421875	1778.97802734375	-304.6892700195312	-1465.429443359375	1831.806274414062	-380.9986877441406	-1508.766357421875	1848.581420898438	-258.9582824707031	-1628.634887695312	1765.752319335938	-434.0865173339844	-1625.209716796875	1037.424926757812	-492.7178039550781	-1595.209228515625	1027.062255859375	-132.2037506103516	-1518.028198242188	1102.712158203125	-184.7230072021484	-1515.493041992188	1101.656494140625	-450.7353515625	-1585.671875	535.4171752929688	-453.4604187011719	-1610.41748046875	680.6783447265625	-484.1379699707031	-1699.370239257812	35.12393188476562	-430.1539611816406	-1683.207885742188	285.96240234375	-473.0557556152344	-1468.190551757812	37.0986213684082	-373.3915710449219	-1548.7177734375	41.51499938964844	-339.0572509765625	-1574.09716796875	33.11899185180664	-456.75146484375	-1767.652099609375	36.77548980712891	-366.6670532226562	-1514.2333984375	537.63037109375	-174.4135131835938	-1543.387817382812	816.6718139648438	-143.6552276611328	-1680.57080078125	38.42110443115234	-164.6789245605469	-1553.366577148438	402.8714904785156	-156.63232421875	-1451.676147460938	52.81228637695312	-218.2131652832031	-1511.8408203125	40.39367294311523	-260.9717102050781	-1547.621337890625	43.29539489746094	-146.5433807373047	-1738.96875	42.12735366821289	-212.1173858642578	
2	0.01	-1723.947265625	1120.239624023438	-251.8949890136719	-1719.55712890625	1126.08251953125	-387.3425903320312	-1728.698486328125	1162.2197265625	-324.3306884765625	-1500.849365234375	1357.00439453125	-318.2019653320312	-1757.558959960938	1317.592407226562	-331.8353881835938	-1701.893920898438	1606.192993164062	-355.8222961425781	-1528.6005859375	1493.692138671875	-327.5373840332031	-1774.024291992188	1429.186645507812	-265.5338745117188	-1701.741577148438	1582.662109375	-457.2874755859375	-1609.835815429688	1561.902587890625	-515.7623901367188	-1621.947875976562	1429.843994140625	-585.2255249023438	-1594.596435546875	1210.513061523438	-603.2446899414062	-1669.23388671875	1196.120849609375	-559.3936767578125	-1497.375	955.2428588867188	-541.32421875	-1571.227416992188	927.9684448242188	-583.005859375	-1574.186889648438	1094.81201171875	-603.6660766601562	-1487.603149414062	761.5985717773438	-516.9196166992188	-1540.527465820312	853.8211669921875	-578.3837890625	-1478.261840820312	865.671630859375	-549.2474975585938	-1662.895874023438	1593.104614257812	-169.2210083007812	-1689.569091796875	1523.046875	-104.9617767333984	-1723.175415039062	1230.28466796875	-80.60913848876953	-1714.927124023438	1225.53515625	-177.8415374755859	-1584.56689453125	984.9422607421875	-63.2152214050293	-1663.209594726562	969.866943359375	-43.09730911254883	-1704.997192382812	1156.57763671875	-59.32707595825195	-1563.44873046875	789.8148803710938	-77.69869995117188	-1558.163208007812	875.1693725585938	-52.19889831542969	-1630.23876953125	869.3578491210938	-31.30557250976562	-1665.88232421875	1778.787963867188	-304.9310913085938	-1465.629150390625	1831.88427734375	-381.1373901367188	-1509.102905273438	1848.660278320312	-259.1488037109375	-1628.747924804688	1765.566284179688	-434.3276062011719	-1624.575805664062	1037.4287109375	-492.6710510253906	-1594.514770507812	1026.850341796875	-132.2939453125	-1517.352416992188	1102.6240234375	-184.7638549804688	-1514.963500976562	1101.610717773438	-450.6560668945312	-1585.829711914062	535.3555908203125	-453.5790100097656	-1610.446533203125	680.7017822265625	-484.1872863769531	-1699.388916015625	35.1285514831543	-430.1492614746094	-1683.485473632812	286.0582275390625	-473.0577392578125	-1468.197998046875	37.11339950561523	-373.4287719726562	-1548.700561523438	41.5244026184082	-339.0806884765625	-1574.103393554688	33.11489486694336	-456.7771606445312	-1767.648193359375	36.76294708251953	-366.6552429199219	-1515.2431640625	537.2694091796875	-174.6353454589844	-1543.268310546875	816.4047241210938	-143.7988433837891	-1680.049926757812	37.75246047973633	-165.6152801513672	-1553.886474609375	402.4641418457031	-157.0378723144531	-1450.898803710938	50.6937141418457	-218.9765625	-1511.081420898438	38.60703659057617	-261.7205200195312	-1547.06201171875	42.68812561035156	-147.1883697509766	-1738.369995117188	41.54216766357422	-213.1643981933594	
3	0.02	-1723.074462890625	1120.143432617188	-251.8136138916016	-1718.7216796875	1125.994262695312	-387.1999816894531	-1727.899169921875	1161.979125976562	-324.2129211425781	-1500.363037109375	1356.9697265625	-318.2612609863281	-1757.093627929688	1317.276611328125	-331.7243041992188	-1701.754028320312	1605.903564453125	-355.8370361328125	-1528.375610351562	1493.633178710938	-327.6119689941406	-1773.693725585938	1428.887329101562	-265.5113830566406	-1701.668090820312	1582.359497070312	-457.3498229980469	-1609.800903320312	1561.696533203125	-515.8418579101562	-1621.87841796875	1429.601928710938	-585.2235107421875	-1594.622314453125	1210.257934570312	-603.3063354492188	-1669.127319335938	1195.818481445312	-559.2522583007812	-1496.494995117188	955.4103393554688	-541.1513061523438	-1570.187866210938	927.8021240234375	-582.5746459960938	-1573.927734375	1094.601440429688	-603.6096801757812	-1486.13427734375	761.8006591796875	-516.3358764648438	-1539.375610351562	853.7577514648438	-577.8510131835938	-1477.111572265625	865.9776611328125	-548.9061889648438	-1662.715209960938	1592.988037109375	-169.2730102539062	-1689.239379882812	1522.892822265625	-104.9743041992188	-1722.6171875	1230.182739257812	-80.37188720703125	-1714.3505859375	1225.345092773438	-177.5588684082031	-1584.341674804688	984.7130126953125	-62.73736572265625	-1663.000854492188	969.7588500976562	-42.63000869750977	-1704.485717773438	1156.503540039062	-59.02075958251953	-1563.700561523438	789.4669799804688	-77.08767700195312	-1558.241821289062	874.8615112304688	-51.68070983886719	-1630.311645507812	869.2085571289062	-30.79132461547852	-1666.081665039062	1778.549072265625	-305.203857421875	-1465.88671875	1831.980102539062	-381.2962341308594	-1509.50634765625	1848.75830078125	-259.3659057617188	-1628.880981445312	1765.329956054688	-434.5960693359375	-1623.77099609375	1037.429809570312	-492.6098022460938	-1593.652587890625	1026.598876953125	-132.3870391845703	-1516.496826171875	1102.506713867188	-184.7830810546875	-1514.264892578125	1101.554809570312	-450.5484008789062	-1585.982543945312	535.2876586914062	-453.6917724609375	-1610.437744140625	680.723388671875	-484.222412109375	-1699.410522460938	35.14426422119141	-430.1373596191406	-1683.804565429688	286.1807861328125	-473.0260925292969	-1468.203125	37.12930297851562	-373.4712829589844	-1548.676635742188	41.53491592407227	-339.1113891601562	-1574.109985351562	33.11174011230469	-456.8040466308594	-1767.641723632812	36.75088882446289	-366.6318664550781	-1516.562622070312	536.80224609375	-174.8805084228516	-1543.164916992188	816.056640625	-143.9240875244141	-1679.55419921875	36.98841857910156	-166.6894073486328	-1554.6591796875	401.9552307128906	-157.4961700439453	-1450.06103515625	48.39616012573242	-219.6181640625	-1510.208251953125	36.66189956665039	-262.417236328125	-1546.529174804688	41.98452758789062	-147.76708984375	-1737.745483398438	40.79663848876953	-214.4111328125	
4	0.03	-1722.048706054688	1120.036743164062	-251.7125244140625	-1717.741455078125	1125.895385742188	-387.0433349609375	-1726.946899414062	1161.702270507812	-324.0611267089844	-1499.778076171875	1356.9365234375	-318.2972717285156	-1756.531127929688	1316.903076171875	-331.5610656738281	-1701.607421875	1605.572021484375	-355.8167114257812	-1528.093017578125	1493.561401367188	-327.6714477539062	-1773.2998046875	1428.531860351562	-265.4227294921875	-1701.609252929688	1582.009033203125	-457.3780517578125	-1609.789794921875	1561.45703125	-515.9028930664062	-1621.821411132812	1429.314331054688	-585.1826782226562	-1594.672119140625	1209.954467773438	-603.3438720703125	-1669.023193359375	1195.459228515625	-559.0548706054688	-1495.47900390625	955.611572265625	-540.9103393554688	-1569.066284179688	927.6015625	-582.0482788085938	-1573.642700195312	1094.349365234375	-603.5045166015625	-1484.463134765625	762.0386352539062	-515.6277465820312	-1538.054931640625	853.6854858398438	-577.1982421875	-1475.783935546875	866.3116455078125	-548.4793090820312	-1662.487548828125	1592.847290039062	-169.2881317138672	-1688.828735351562	1522.711669921875	-104.9378204345703	-1721.925903320312	1230.060791015625	-80.04103088378906	-1713.655639648438	1225.126342773438	-177.18603515625	-1584.0556640625	984.4276123046875	-62.17926025390625	-1662.721435546875	969.6235961914062	-42.06048202514648	-1703.85107421875	1156.415161132812	-58.62089920043945	-1563.936157226562	789.060791015625	-76.35781860351562	-1558.282958984375	874.49267578125	-51.0626106262207	-1630.3330078125	869.03369140625	-30.15608406066895	-1666.305053710938	1778.274536132812	-305.4808349609375	-1466.1904296875	1832.089111328125	-381.4602661132812	-1509.950073242188	1848.872680664062	-259.5891723632812	-1629.02490234375	1765.0537109375	-434.8647155761719	-1622.822875976562	1037.4287109375	-492.5368347167969	-1592.667114257812	1026.326904296875	-132.4711456298828	-1515.495849609375	1102.364379882812	-184.7647094726562	-1513.412475585938	1101.494140625	-450.4176025390625	-1586.102294921875	535.2206420898438	-453.7733459472656	-1610.364379882812	680.7383422851562	-484.2259826660156	-1699.433471679688	35.17501831054688	-430.1149597167969	-1684.136596679688	286.3255310058594	-472.9453125	-1468.203125	37.1435432434082	-373.51513671875	-1548.646850585938	41.54503631591797	-339.14794921875	-1574.116333007812	33.11009979248047	-456.8277893066406	-1767.630859375	36.74147796630859	-366.5939636230469	-1518.157958984375	536.251220703125	-175.1168518066406	-1543.1044921875	815.6378784179688	-143.9987487792969	-1679.162841796875	36.18766021728516	-167.798828125	-1555.705078125	401.380615234375	-157.9491882324219	-1449.254150390625	46.19517517089844	-220.0341796875	-1509.326293945312	34.77147674560547	-262.9629821777344	-1546.102783203125	41.2503776550293	-148.1950988769531	-1737.181030273438	39.92554092407227	-215.7556304931641	
